<svg width="111.631" height="25.83" viewBox="0 0 111.631 25.83" xmlns="http://www.w3.org/2000/svg"><g id="svgGroup" stroke-linecap="round" fill-rule="evenodd" font-size="9pt" stroke="#ffffff" stroke-width="0.25mm" fill="#ffffff" style="stroke:#ffffff;stroke-width:0.25mm;fill:#ffffff"><path d="M 55.456 6.405 L 55.456 22.435 Q 55.456 23.415 55.684 23.905 Q 55.911 24.395 56.559 24.57 Q 57.206 24.745 58.466 24.745 L 62.946 24.745 Q 64.801 24.745 65.781 23.52 Q 66.761 22.295 67.041 20.3 Q 67.041 20.195 67.234 20.213 Q 67.426 20.23 67.426 20.335 Q 67.321 21.245 67.216 22.523 Q 67.111 23.8 67.111 24.885 Q 67.111 25.41 66.586 25.41 L 50.486 25.41 Q 50.416 25.41 50.416 25.2 Q 50.416 24.99 50.486 24.99 Q 51.816 24.99 52.481 24.815 Q 53.146 24.64 53.374 24.115 Q 53.601 23.59 53.601 22.575 L 53.601 6.37 Q 53.601 5.355 53.374 4.848 Q 53.146 4.34 52.481 4.148 Q 51.816 3.955 50.486 3.955 Q 50.416 3.955 50.416 3.745 Q 50.416 3.535 50.486 3.535 Q 51.326 3.535 52.359 3.588 Q 53.391 3.64 54.511 3.64 Q 55.701 3.64 56.734 3.588 Q 57.766 3.535 58.571 3.535 Q 58.641 3.535 58.641 3.745 Q 58.641 3.955 58.571 3.955 Q 57.241 3.955 56.576 4.148 Q 55.911 4.34 55.684 4.865 Q 55.456 5.39 55.456 6.405 Z M 100.046 22.575 L 100.046 14.7 Q 100.046 13.825 99.889 13.423 Q 99.731 13.02 99.189 12.898 Q 98.646 12.775 97.421 12.775 Q 97.316 12.775 97.316 12.565 Q 97.316 12.355 97.421 12.355 Q 98.961 12.355 99.469 12.005 Q 99.976 11.655 100.011 10.78 Q 100.186 4.97 102.111 2.485 Q 104.036 0 107.571 0 Q 109.391 0 110.511 0.543 Q 111.631 1.085 111.631 1.785 Q 111.631 2.275 111.299 2.52 Q 110.966 2.765 110.546 2.765 Q 110.231 2.765 109.951 2.608 Q 109.671 2.45 109.286 1.995 Q 108.726 1.26 108.044 0.91 Q 107.361 0.56 106.381 0.56 Q 104.351 0.56 103.039 2.818 Q 101.726 5.075 101.726 10.045 L 101.726 22.575 Q 101.726 23.59 101.954 24.115 Q 102.181 24.64 102.951 24.815 Q 103.721 24.99 105.261 24.99 Q 105.331 24.99 105.331 25.2 Q 105.331 25.41 105.261 25.41 Q 104.106 25.41 103.039 25.375 Q 101.971 25.34 100.851 25.34 Q 99.941 25.34 99.084 25.375 Q 98.226 25.41 97.561 25.41 Q 97.456 25.41 97.456 25.2 Q 97.456 24.99 97.561 24.99 Q 99.101 24.99 99.574 24.535 Q 100.046 24.08 100.046 22.575 Z M 18.566 24.99 L 27.106 12.565 Q 27.246 12.32 26.931 12.32 Q 24.201 12.32 22.609 12.513 Q 21.016 12.705 20.194 13.335 Q 19.371 13.965 18.986 15.295 Q 18.951 15.4 18.741 15.348 Q 18.531 15.295 18.566 15.225 L 19.686 10.955 Q 19.721 10.885 19.931 10.903 Q 20.141 10.92 20.106 10.99 Q 19.966 11.55 20.351 11.725 Q 20.736 11.9 21.751 11.9 L 24.761 11.9 L 28.996 11.9 Q 29.136 11.9 29.241 12.04 Q 29.346 12.18 29.276 12.32 L 20.946 24.675 Q 20.806 24.92 21.121 24.92 Q 23.711 24.92 25.199 24.85 Q 26.686 24.78 27.474 24.483 Q 28.261 24.185 28.664 23.503 Q 29.066 22.82 29.486 21.595 Q 29.521 21.525 29.696 21.525 Q 29.871 21.525 29.871 21.595 L 29.801 25.025 Q 29.801 25.165 29.714 25.288 Q 29.626 25.41 29.486 25.41 L 26.039 25.41 L 22.399 25.41 L 18.811 25.41 Q 18.671 25.41 18.584 25.27 Q 18.496 25.13 18.566 24.99 Z M 3.061 22.575 L 3.061 4.41 Q 3.061 3.15 2.816 2.573 Q 2.571 1.995 1.941 1.995 Q 1.381 1.995 0.261 2.52 Q 0.121 2.59 0.034 2.38 Q -0.054 2.17 0.086 2.135 L 4.286 0.07 Q 4.391 0.035 4.461 0.035 Q 4.531 0.035 4.618 0.105 Q 4.706 0.175 4.706 0.28 L 4.706 22.575 Q 4.706 24.08 5.126 24.535 Q 5.546 24.99 7.016 24.99 Q 7.086 24.99 7.086 25.2 Q 7.086 25.41 7.016 25.41 Q 6.386 25.41 5.599 25.375 Q 4.811 25.34 3.901 25.34 Q 3.026 25.34 2.204 25.375 Q 1.381 25.41 0.786 25.41 Q 0.681 25.41 0.681 25.2 Q 0.681 24.99 0.786 24.99 Q 2.221 24.99 2.641 24.535 Q 3.061 24.08 3.061 22.575 Z M 79.851 16.45 L 78.206 16.45 Q 78.381 14.28 77.524 13.283 Q 76.666 12.285 75.196 12.285 Q 73.236 12.285 72.151 13.773 Q 71.066 15.26 71.066 17.85 Q 71.066 19.81 71.696 21.368 Q 72.326 22.925 73.551 23.818 Q 74.776 24.71 76.526 24.71 Q 77.751 24.71 78.539 24.343 Q 79.326 23.975 80.061 23.52 Q 80.131 23.45 80.254 23.608 Q 80.376 23.765 80.306 23.87 Q 79.081 24.92 77.839 25.375 Q 76.596 25.83 75.301 25.83 Q 73.236 25.83 71.854 24.868 Q 70.471 23.905 69.771 22.365 Q 69.071 20.825 69.071 19.11 Q 69.071 16.975 70.051 15.278 Q 71.031 13.58 72.694 12.583 Q 74.356 11.585 76.316 11.585 Q 78.311 11.585 79.291 12.67 Q 80.271 13.755 80.271 15.575 Q 80.271 16.03 80.184 16.24 Q 80.096 16.45 79.851 16.45 Z M 44.501 22.575 L 44.501 16.73 Q 44.501 14.595 43.696 13.615 Q 42.891 12.635 41.176 12.635 Q 39.846 12.635 38.464 13.51 Q 37.081 14.385 36.066 15.925 L 35.926 15.505 Q 37.571 13.335 39.076 12.39 Q 40.581 11.445 42.121 11.445 Q 44.046 11.445 45.096 12.478 Q 46.146 13.51 46.146 15.68 L 46.146 22.575 Q 46.146 24.08 46.549 24.535 Q 46.951 24.99 48.421 24.99 Q 48.526 24.99 48.526 25.2 Q 48.526 25.41 48.421 25.41 Q 47.826 25.41 47.021 25.375 Q 46.216 25.34 45.341 25.34 Q 44.466 25.34 43.644 25.375 Q 42.821 25.41 42.226 25.41 Q 42.121 25.41 42.121 25.2 Q 42.121 24.99 42.226 24.99 Q 43.661 24.99 44.081 24.535 Q 44.501 24.08 44.501 22.575 Z M 96.301 23.905 L 92.696 25.62 Q 92.556 25.69 92.416 25.69 Q 91.996 25.69 91.646 24.955 Q 91.296 24.22 91.296 22.82 L 91.296 16.065 Q 91.296 13.895 90.614 13.055 Q 89.931 12.215 88.916 12.215 Q 88.041 12.215 87.464 12.618 Q 86.886 13.02 86.589 13.615 Q 86.291 14.21 86.151 14.735 Q 86.081 15.085 85.906 15.558 Q 85.731 16.03 85.031 16.03 Q 84.506 16.03 84.244 15.715 Q 83.981 15.4 83.981 15.05 Q 83.981 14.455 84.611 13.843 Q 85.241 13.23 86.204 12.705 Q 87.166 12.18 88.216 11.865 Q 89.266 11.55 90.141 11.55 Q 91.576 11.55 92.241 12.478 Q 92.906 13.405 92.906 15.015 L 92.906 21.63 Q 92.906 22.89 93.204 23.468 Q 93.501 24.045 94.236 24.045 Q 94.901 24.045 96.161 23.52 Q 96.336 23.45 96.406 23.643 Q 96.476 23.835 96.301 23.905 Z M 35.086 22.575 L 35.086 15.575 Q 35.086 14.385 34.806 13.843 Q 34.526 13.3 33.826 13.3 Q 33.476 13.3 32.986 13.44 Q 32.496 13.58 31.866 13.825 Q 31.726 13.86 31.639 13.685 Q 31.551 13.51 31.691 13.44 L 35.576 11.62 Q 35.646 11.585 35.751 11.585 Q 35.996 11.585 36.364 12.303 Q 36.731 13.02 36.731 14.385 L 36.731 22.575 Q 36.731 24.08 37.134 24.535 Q 37.536 24.99 39.006 24.99 Q 39.111 24.99 39.111 25.2 Q 39.111 25.41 39.006 25.41 Q 38.411 25.41 37.606 25.375 Q 36.801 25.34 35.926 25.34 Q 35.051 25.34 34.229 25.375 Q 33.406 25.41 32.811 25.41 Q 32.706 25.41 32.706 25.2 Q 32.706 24.99 32.811 24.99 Q 34.246 24.99 34.666 24.535 Q 35.086 24.08 35.086 22.575 Z M 87.271 20.02 L 91.646 18.375 L 91.716 18.83 L 87.586 20.405 Q 86.851 20.685 86.466 21.018 Q 86.081 21.35 85.941 21.718 Q 85.801 22.085 85.801 22.47 Q 85.801 23.24 86.309 23.87 Q 86.816 24.5 87.796 24.5 Q 88.181 24.5 88.601 24.378 Q 89.021 24.255 89.616 23.905 L 91.961 22.54 L 92.031 22.96 L 89.406 24.605 Q 88.531 25.165 87.866 25.41 Q 87.201 25.655 86.501 25.655 Q 85.206 25.655 84.524 24.938 Q 83.841 24.22 83.841 23.275 Q 83.841 22.68 84.139 22.12 Q 84.436 21.56 85.189 21.035 Q 85.941 20.51 87.271 20.02 Z M 10.411 14.735 L 4.251 19.39 L 4.111 19.04 L 9.781 14.63 Q 11.216 13.51 10.919 12.915 Q 10.621 12.32 8.766 12.32 Q 8.661 12.32 8.661 12.11 Q 8.661 11.9 8.766 11.9 Q 9.606 11.9 10.446 11.935 Q 11.286 11.97 12.686 11.97 Q 13.981 11.97 14.751 11.935 Q 15.521 11.9 16.221 11.9 Q 16.291 11.9 16.291 12.11 Q 16.291 12.32 16.221 12.32 Q 15.416 12.32 14.489 12.565 Q 13.561 12.81 12.546 13.353 Q 11.531 13.895 10.411 14.735 Z M 11.111 23.555 L 6.631 17.36 L 8.066 16.31 L 12.546 22.575 Q 13.491 23.94 14.541 24.465 Q 15.591 24.99 16.641 24.99 Q 16.711 24.99 16.711 25.2 Q 16.711 25.41 16.641 25.41 Q 16.011 25.41 15.224 25.375 Q 14.436 25.34 13.526 25.34 Q 12.231 25.34 11.304 25.375 Q 10.376 25.41 9.571 25.41 Q 9.501 25.41 9.501 25.2 Q 9.501 24.99 9.571 24.99 Q 10.901 24.99 11.286 24.675 Q 11.671 24.36 11.111 23.555 Z M 78.556 16.45 L 70.611 16.485 L 70.576 16.065 L 78.556 15.925 L 78.556 16.45 Z M 101.026 13.055 L 101.026 12.32 Q 102.391 12.32 103.669 12.215 Q 104.946 12.11 106.381 11.97 Q 106.486 11.97 106.556 12.197 Q 106.626 12.425 106.626 12.775 Q 106.626 13.02 106.521 13.318 Q 106.416 13.615 106.276 13.58 Q 104.911 13.23 103.669 13.143 Q 102.426 13.055 101.026 13.055 Z" vector-effect="non-scaling-stroke"/></g></svg>