<svg width="143.4" height="30.03" viewBox="0 0 143.4 30.03" xmlns="http://www.w3.org/2000/svg"><g id="svgGroup" stroke-linecap="round" fill-rule="evenodd" font-size="9pt" stroke="#ffffff" stroke-width="0.25mm" fill="#ffffff" style="stroke:#ffffff;stroke-width:0.25mm;fill:#ffffff"><path d="M 95.37 23.67 A 2.359 2.359 0 0 0 95.436 23.711 Q 96.303 24.24 97.95 24.24 Q 98.726 24.24 99.616 24.131 A 20.017 20.017 0 0 0 101.07 23.895 A 18.136 18.136 0 0 0 101.505 23.803 A 19.828 19.828 0 0 0 104.565 22.845 Q 106.32 22.14 107.805 21.09 A 10.315 10.315 0 0 0 108.211 20.788 A 8.872 8.872 0 0 0 110.205 18.63 Q 111.12 17.22 111.12 15.45 A 3.858 3.858 0 0 0 111.06 14.781 A 4.931 4.931 0 0 0 110.85 13.995 A 3.469 3.469 0 0 0 110.409 13.153 A 4.798 4.798 0 0 0 109.875 12.525 A 3.902 3.902 0 0 0 109.436 12.15 Q 108.8 11.679 107.835 11.31 Q 106.5 10.8 104.4 10.62 A 14.577 14.577 0 0 0 104.685 10.564 A 16.023 16.023 0 0 0 106.71 10.005 Q 107.88 9.6 108.87 8.925 Q 109.86 8.25 110.475 7.245 A 4.043 4.043 0 0 0 110.972 5.986 A 5.416 5.416 0 0 0 111.09 4.83 A 6.437 6.437 0 0 0 111.085 4.568 Q 111.062 4.01 110.941 3.534 A 3.423 3.423 0 0 0 110.37 2.31 Q 109.65 1.35 108.54 0.855 Q 107.43 0.36 106.2 0.195 Q 104.97 0.03 103.95 0.03 A 20.548 20.548 0 0 0 103.217 0.043 Q 102.303 0.075 101.502 0.191 A 10.89 10.89 0 0 0 99.9 0.54 A 38.692 38.692 0 0 0 99.691 0.604 A 35.347 35.347 0 0 0 96.69 1.68 A 0.338 0.338 0 0 0 96.69 1.696 Q 96.699 1.87 96.885 2.085 Q 97.08 2.31 97.32 2.46 A 1.37 1.37 0 0 0 97.454 2.534 Q 97.527 2.569 97.593 2.588 A 0.539 0.539 0 0 0 97.74 2.61 Q 97.904 2.61 98.224 2.427 A 4.262 4.262 0 0 0 98.415 2.31 A 4.562 4.562 0 0 1 98.458 2.282 Q 98.918 1.993 99.72 1.635 A 6.566 6.566 0 0 1 100.045 1.5 Q 100.418 1.358 100.855 1.237 A 12.695 12.695 0 0 1 101.79 1.02 A 40.956 40.956 0 0 0 101.001 2.662 A 56.362 56.362 0 0 0 100.2 4.515 Q 99.39 6.48 98.625 8.52 Q 97.86 10.56 97.23 12.42 A 412.445 412.445 0 0 0 96.854 13.536 Q 96.675 14.07 96.513 14.558 A 228.569 228.569 0 0 0 96.15 15.66 Q 95.7 17.04 95.52 17.64 Q 95.37 18.09 95.235 18.555 Q 95.151 18.846 95.119 19.084 A 2.028 2.028 0 0 0 95.1 19.35 A 1.261 1.261 0 0 0 95.322 20.075 A 1.669 1.669 0 0 0 95.655 20.43 A 1.943 1.943 0 0 0 96.344 20.789 A 2.414 2.414 0 0 0 97.02 20.88 Q 97.71 18.54 98.355 16.095 Q 99 13.65 99.69 11.28 Q 100.2 11.28 100.785 11.265 Q 101.37 11.25 101.94 11.25 Q 103.23 11.25 104.565 11.37 A 11.907 11.907 0 0 1 105.301 11.459 A 10.072 10.072 0 0 1 107.04 11.88 A 5.33 5.33 0 0 1 107.847 12.229 A 3.982 3.982 0 0 1 108.87 13.005 A 2.452 2.452 0 0 1 109.459 14.089 A 3.393 3.393 0 0 1 109.56 14.94 A 4.081 4.081 0 0 1 109.321 16.314 A 4.99 4.99 0 0 1 108.675 17.535 A 6.297 6.297 0 0 1 108.612 17.622 Q 108.132 18.274 107.447 18.855 A 10.152 10.152 0 0 1 106.17 19.77 Q 104.55 20.76 102.345 21.33 A 17.046 17.046 0 0 1 100.62 21.68 A 20.511 20.511 0 0 1 97.56 21.9 A 33.484 33.484 0 0 1 97.333 21.899 Q 96.308 21.892 95.769 21.821 A 2.84 2.84 0 0 1 95.46 21.765 Q 95.055 21.664 94.819 21.638 A 1.321 1.321 0 0 0 94.68 21.63 Q 94.47 21.63 94.47 21.78 Q 94.48 22.213 94.58 22.566 A 1.887 1.887 0 0 0 95.37 23.67 Z M 142.95 16.68 L 143.4 17.07 Q 142.92 18.42 141.93 19.545 A 12.634 12.634 0 0 1 140.153 21.219 A 11.504 11.504 0 0 1 139.8 21.48 A 17.485 17.485 0 0 1 138.854 22.11 Q 138.248 22.483 137.7 22.74 A 31.974 31.974 0 0 1 136.635 25.112 A 26.273 26.273 0 0 1 135.945 26.4 Q 135.158 27.774 134.319 28.691 A 8.26 8.26 0 0 1 133.98 29.04 A 4.01 4.01 0 0 1 133.211 29.634 A 2.782 2.782 0 0 1 131.79 30.03 Q 131.1 30.03 130.53 29.61 Q 130.018 29.233 129.966 28.421 A 2.966 2.966 0 0 1 129.96 28.23 Q 129.96 27.3 130.515 26.535 A 5.932 5.932 0 0 1 131.338 25.626 A 7.464 7.464 0 0 1 131.955 25.125 A 15.018 15.018 0 0 1 133.682 24.042 A 16.607 16.607 0 0 1 133.875 23.94 A 134.31 134.31 0 0 1 135.385 23.164 A 118.286 118.286 0 0 1 135.87 22.92 Q 136.26 21.96 136.605 20.835 Q 136.95 19.71 137.28 18.39 A 16.188 16.188 0 0 1 136.144 19.793 A 12.421 12.421 0 0 1 134.955 20.94 A 5.16 5.16 0 0 1 134.089 21.536 Q 133.502 21.852 132.912 21.933 A 2.981 2.981 0 0 1 132.51 21.96 Q 131.37 21.96 130.755 21.135 A 2.965 2.965 0 0 1 130.26 20.059 Q 130.156 19.637 130.142 19.143 A 5.483 5.483 0 0 1 130.14 18.99 Q 130.14 17.43 130.905 16.02 Q 131.67 14.61 132.915 13.53 A 10.765 10.765 0 0 1 134.909 12.149 A 9.7 9.7 0 0 1 135.555 11.835 A 7.754 7.754 0 0 1 136.833 11.394 A 5.769 5.769 0 0 1 138.21 11.22 Q 138.998 11.22 139.406 11.45 A 1.035 1.035 0 0 1 139.515 11.52 Q 139.92 11.82 139.92 12.24 A 0.876 0.876 0 0 1 139.901 12.426 Q 139.865 12.595 139.755 12.705 A 4.148 4.148 0 0 1 139.697 12.762 Q 139.605 12.85 139.555 12.885 A 0.216 0.216 0 0 1 139.53 12.9 A 1.156 1.156 0 0 0 139.241 12.632 A 1.054 1.054 0 0 0 139.02 12.525 Q 138.787 12.443 138.463 12.425 A 3.447 3.447 0 0 0 138.27 12.42 A 4.059 4.059 0 0 0 136.418 12.876 A 5.042 5.042 0 0 0 136.005 13.11 Q 134.91 13.8 134.085 14.865 A 10.619 10.619 0 0 0 133.033 16.505 A 9.484 9.484 0 0 0 132.765 17.07 Q 132.355 18.013 132.285 18.813 A 3.716 3.716 0 0 0 132.27 19.14 Q 132.27 19.83 132.555 20.175 Q 132.84 20.52 133.29 20.52 A 1.658 1.658 0 0 0 133.881 20.399 Q 134.384 20.206 134.99 19.707 A 8.323 8.323 0 0 0 135.345 19.395 A 15.323 15.323 0 0 0 136.679 17.984 A 20.087 20.087 0 0 0 137.7 16.65 A 8.458 8.458 0 0 1 137.763 16.311 Q 137.797 16.149 137.835 16.005 A 11.176 11.176 0 0 0 137.893 15.772 Q 137.944 15.563 138 15.3 Q 138.15 14.64 138.525 14.07 Q 138.9 13.5 139.65 13.5 A 1.672 1.672 0 0 1 139.863 13.514 A 1.983 1.983 0 0 1 139.965 13.53 Q 140.13 13.56 140.34 13.62 Q 140.34 14.065 140.095 15.18 A 29.367 29.367 0 0 1 140.055 15.36 A 28.669 28.669 0 0 1 139.808 16.364 Q 139.573 17.25 139.245 18.3 A 65.81 65.81 0 0 1 138.382 20.871 A 73.149 73.149 0 0 1 138.06 21.75 A 9.764 9.764 0 0 0 139.26 21.076 A 11.931 11.931 0 0 0 139.98 20.565 Q 140.94 19.83 141.72 18.84 Q 142.5 17.85 142.95 16.68 Z M 12.96 16.62 L 13.35 17.1 A 9.527 9.527 0 0 1 12.826 18.192 Q 12.529 18.716 12.197 19.108 A 3.754 3.754 0 0 1 11.4 19.83 Q 10.26 20.58 8.91 20.58 Q 8.7 20.58 8.49 20.565 Q 8.28 20.55 8.07 20.52 Q 7.23 21.9 6.03 22.86 Q 4.83 23.82 3.21 23.82 A 4.011 4.011 0 0 1 2.257 23.714 A 2.542 2.542 0 0 1 0.795 22.785 Q 0.112 21.896 0.016 20.463 A 7.223 7.223 0 0 1 0 19.98 A 10.906 10.906 0 0 1 0.084 18.675 Q 0.161 18.039 0.308 17.331 A 21.484 21.484 0 0 1 0.51 16.455 A 36.854 36.854 0 0 1 1.276 13.842 A 45.048 45.048 0 0 1 1.86 12.195 Q 2.7 9.96 3.735 7.845 A 52.912 52.912 0 0 1 4.904 5.589 A 41.999 41.999 0 0 1 5.82 4.005 Q 6.87 2.28 7.815 1.245 A 6.664 6.664 0 0 1 8.213 0.842 Q 8.645 0.443 9 0.296 A 1.022 1.022 0 0 1 9.39 0.21 Q 9.91 0.21 10.166 0.809 A 1.843 1.843 0 0 1 10.185 0.855 Q 10.44 1.5 10.44 2.16 Q 10.44 2.77 10.25 3.571 A 11.197 11.197 0 0 1 10.08 4.2 A 15.275 15.275 0 0 1 9.613 5.522 A 20.343 20.343 0 0 1 9.06 6.765 Q 8.4 8.13 7.53 9.45 Q 6.66 10.77 5.64 11.85 Q 4.62 12.93 3.57 13.56 A 2.608 2.608 0 0 0 3.458 13.78 Q 3.286 14.153 3.052 14.857 A 24.84 24.84 0 0 0 3.03 14.925 A 17.764 17.764 0 0 0 2.724 15.969 Q 2.589 16.488 2.465 17.068 A 29.112 29.112 0 0 0 2.43 17.235 A 12.702 12.702 0 0 0 2.161 19.642 A 11.799 11.799 0 0 0 2.16 19.8 A 6.663 6.663 0 0 0 2.215 20.68 Q 2.301 21.322 2.52 21.825 A 1.51 1.51 0 0 0 2.814 22.278 Q 3.175 22.65 3.78 22.65 Q 4.62 22.65 5.535 21.93 Q 6.45 21.21 7.02 20.13 Q 5.91 19.56 5.355 18.465 Q 4.8 17.37 4.8 16.23 A 4.414 4.414 0 0 1 4.908 15.228 A 3.042 3.042 0 0 1 5.565 13.905 A 2.713 2.713 0 0 1 6.239 13.332 A 2.267 2.267 0 0 1 7.41 13.02 Q 8.28 13.02 8.813 13.692 A 2.206 2.206 0 0 1 8.85 13.74 Q 9.39 14.46 9.39 15.87 A 7.907 7.907 0 0 1 9.234 17.407 A 9.153 9.153 0 0 1 9.135 17.85 Q 8.88 18.87 8.4 19.86 A 1.958 1.958 0 0 1 8.693 19.881 A 1.771 1.771 0 0 1 8.745 19.89 Q 8.91 19.92 9.09 19.92 A 3.581 3.581 0 0 0 9.94 19.824 A 2.686 2.686 0 0 0 10.905 19.38 Q 11.64 18.84 12.135 18.075 A 14.95 14.95 0 0 0 12.589 17.329 A 11.495 11.495 0 0 0 12.96 16.62 Z M 51.87 16.71 L 52.29 17.07 A 7.272 7.272 0 0 1 51.255 19.168 A 6.804 6.804 0 0 1 50.925 19.59 Q 50.01 20.67 48.87 21.45 A 15.333 15.333 0 0 1 47.303 22.395 A 13.208 13.208 0 0 1 46.59 22.74 A 33.211 33.211 0 0 1 45.336 25.477 A 29.352 29.352 0 0 1 44.88 26.325 A 15.643 15.643 0 0 1 44.11 27.571 Q 43.684 28.19 43.24 28.683 A 8.528 8.528 0 0 1 42.93 29.01 Q 42.174 29.766 41.385 29.962 A 2.298 2.298 0 0 1 40.83 30.03 Q 40.08 30.03 39.48 29.61 A 1.36 1.36 0 0 1 38.913 28.703 A 2.117 2.117 0 0 1 38.88 28.32 A 3.073 3.073 0 0 1 39.099 27.151 A 2.911 2.911 0 0 1 39.39 26.61 A 5.589 5.589 0 0 1 40.151 25.719 A 7.116 7.116 0 0 1 40.74 25.215 A 12.607 12.607 0 0 1 41.994 24.371 A 15.006 15.006 0 0 1 42.63 24.015 Q 43.68 23.46 44.76 22.95 Q 45.124 21.97 45.514 20.728 A 64.746 64.746 0 0 0 45.57 20.55 A 47.049 47.049 0 0 0 46.259 18.096 A 52.096 52.096 0 0 0 46.35 17.73 A 17.249 17.249 0 0 1 45.168 19.338 A 13.999 13.999 0 0 1 44.31 20.28 A 4.32 4.32 0 0 1 43.532 20.906 A 2.872 2.872 0 0 1 42 21.36 A 2.696 2.696 0 0 1 41.074 21.192 A 3.203 3.203 0 0 1 40.86 21.105 A 2.26 2.26 0 0 1 39.921 20.318 A 2.677 2.677 0 0 1 39.915 20.31 Q 39.54 19.77 39.54 18.9 A 5.662 5.662 0 0 1 39.58 18.25 Q 39.647 17.674 39.825 16.98 Q 40.11 15.87 40.53 14.805 A 12.362 12.362 0 0 1 40.851 14.059 Q 41.031 13.68 41.217 13.364 A 6.261 6.261 0 0 1 41.415 13.05 A 3.916 3.916 0 0 1 41.605 12.79 Q 41.923 12.393 42.169 12.363 A 0.33 0.33 0 0 1 42.21 12.36 A 0.655 0.655 0 0 1 42.296 12.367 Q 42.443 12.386 42.69 12.465 Q 43.02 12.57 43.32 12.75 A 1.162 1.162 0 0 1 43.459 12.846 Q 43.615 12.974 43.646 13.116 A 0.333 0.333 0 0 1 43.65 13.14 A 4.568 4.568 0 0 0 43.475 13.415 Q 43.277 13.75 43.05 14.235 Q 42.72 14.94 42.405 15.81 A 19.63 19.63 0 0 0 42.006 17.03 A 16.878 16.878 0 0 0 41.88 17.49 Q 41.719 18.11 41.682 18.607 A 3.877 3.877 0 0 0 41.67 18.9 A 1.9 1.9 0 0 0 41.703 19.264 Q 41.756 19.536 41.895 19.74 Q 42.085 20.019 42.521 20.062 A 1.709 1.709 0 0 0 42.69 20.07 A 1.54 1.54 0 0 0 43.225 19.968 Q 43.441 19.888 43.668 19.746 A 3.664 3.664 0 0 0 43.995 19.515 Q 44.7 18.96 45.39 18.105 Q 46.08 17.25 46.68 16.29 Q 46.721 16.104 46.77 15.862 A 34.349 34.349 0 0 0 46.815 15.63 Q 46.89 15.24 46.98 14.85 Q 47.084 14.461 47.356 14.026 A 4.685 4.685 0 0 1 47.445 13.89 A 1.116 1.116 0 0 1 48.17 13.416 A 1.792 1.792 0 0 1 48.54 13.38 A 3.934 3.934 0 0 1 48.802 13.388 A 3.474 3.474 0 0 1 48.885 13.395 A 1.631 1.631 0 0 1 49.038 13.417 Q 49.116 13.431 49.202 13.454 A 2.924 2.924 0 0 1 49.26 13.47 A 2.799 2.799 0 0 1 49.244 13.74 Q 49.205 14.135 49.068 14.813 A 29.079 29.079 0 0 1 48.975 15.255 A 29.729 29.729 0 0 1 48.728 16.293 Q 48.493 17.207 48.165 18.285 A 52.181 52.181 0 0 1 47.12 21.361 A 57.694 57.694 0 0 1 46.95 21.81 A 7.914 7.914 0 0 0 48.304 21.101 Q 48.983 20.663 49.665 20.055 A 7.355 7.355 0 0 0 50.967 18.506 Q 51.476 17.708 51.87 16.71 Z M 26.07 16.65 L 26.46 17.04 A 12.143 12.143 0 0 1 25.397 19.09 A 10.603 10.603 0 0 1 24.81 19.905 A 9.576 9.576 0 0 1 23.803 20.996 A 7.199 7.199 0 0 1 22.695 21.84 A 5.044 5.044 0 0 1 21.713 22.312 A 3.804 3.804 0 0 1 20.46 22.53 A 2.922 2.922 0 0 1 19.805 22.461 Q 19.147 22.31 18.765 21.825 A 2.678 2.678 0 0 1 18.358 21.117 A 2.262 2.262 0 0 1 18.21 20.31 Q 18.21 20.16 18.225 20.01 A 4.431 4.431 0 0 1 18.244 19.853 A 5.9 5.9 0 0 1 18.27 19.68 Q 17.398 20.822 16.626 21.584 A 9.458 9.458 0 0 1 15.96 22.185 A 4.278 4.278 0 0 1 15.131 22.722 A 3.018 3.018 0 0 1 13.8 23.04 Q 12.84 23.04 12.165 22.41 A 1.962 1.962 0 0 1 11.648 21.585 Q 11.541 21.265 11.506 20.874 A 4.379 4.379 0 0 1 11.49 20.49 Q 11.49 19.44 11.97 18.195 A 11.339 11.339 0 0 1 12.887 16.354 A 13.313 13.313 0 0 1 13.29 15.735 Q 14.13 14.52 15.195 13.53 A 9.995 9.995 0 0 1 16.868 12.264 A 8.953 8.953 0 0 1 17.46 11.94 Q 18.66 11.34 19.86 11.34 A 3.794 3.794 0 0 1 20.838 11.461 A 2.96 2.96 0 0 1 21.885 11.97 A 2.079 2.079 0 0 1 22.497 12.692 Q 22.71 13.117 22.71 13.65 A 1.884 1.884 0 0 1 22.673 14.036 Q 22.626 14.26 22.519 14.426 A 0.909 0.909 0 0 1 22.245 14.7 Q 21.78 15 21.09 14.97 Q 21.15 14.7 21.195 14.43 Q 21.24 14.16 21.24 13.89 Q 21.24 13.23 20.94 12.735 A 0.952 0.952 0 0 0 20.413 12.325 Q 20.165 12.24 19.83 12.24 A 2.66 2.66 0 0 0 18.849 12.436 Q 18.51 12.569 18.166 12.795 A 4.627 4.627 0 0 0 18.12 12.825 A 7.09 7.09 0 0 0 17.165 13.602 A 9.236 9.236 0 0 0 16.455 14.37 Q 15.66 15.33 15.03 16.455 A 13.774 13.774 0 0 0 14.348 17.844 A 11.436 11.436 0 0 0 14.04 18.66 A 7.909 7.909 0 0 0 13.8 19.534 Q 13.68 20.107 13.68 20.61 A 2.431 2.431 0 0 0 13.709 21.001 Q 13.822 21.691 14.383 21.719 A 0.967 0.967 0 0 0 14.43 21.72 A 1.725 1.725 0 0 0 15.025 21.607 Q 15.27 21.517 15.53 21.356 A 4.281 4.281 0 0 0 15.945 21.06 Q 16.744 20.421 17.572 19.457 A 17.176 17.176 0 0 0 17.625 19.395 Q 18.48 18.39 19.26 17.31 A 564.065 564.065 0 0 0 19.908 16.411 Q 20.204 16 20.468 15.631 A 324.435 324.435 0 0 0 20.64 15.39 A 0.774 0.774 0 0 1 20.678 15.322 Q 20.749 15.21 20.82 15.21 A 2.289 2.289 0 0 1 20.904 15.229 Q 21.045 15.263 21.27 15.33 Q 21.57 15.42 21.81 15.6 A 0.666 0.666 0 0 1 21.952 15.741 A 0.514 0.514 0 0 1 22.05 16.05 A 0.795 0.795 0 0 1 22.028 16.227 Q 21.986 16.406 21.869 16.642 A 3.787 3.787 0 0 1 21.795 16.785 A 31.672 31.672 0 0 1 21.555 17.215 Q 21.43 17.433 21.29 17.673 A 53.186 53.186 0 0 1 21.195 17.835 Q 20.85 18.42 20.595 19.02 A 3.577 3.577 0 0 0 20.425 19.51 Q 20.356 19.774 20.343 20.018 A 2.102 2.102 0 0 0 20.34 20.13 Q 20.34 20.58 20.565 20.985 A 0.741 0.741 0 0 0 21.094 21.371 A 1.082 1.082 0 0 0 21.3 21.39 A 1.496 1.496 0 0 0 21.803 21.291 Q 22.467 21.052 23.4 20.235 Q 24.287 19.459 25.187 18.107 A 21.22 21.22 0 0 0 26.07 16.65 Z M 40.14 16.65 L 40.53 17.07 A 16.326 16.326 0 0 1 39.689 18.765 A 13.41 13.41 0 0 1 39.105 19.695 Q 38.31 20.85 37.365 21.54 Q 36.42 22.23 35.28 22.23 Q 34.538 22.23 34.044 21.982 A 1.645 1.645 0 0 1 33.615 21.675 A 1.873 1.873 0 0 1 33.071 20.488 A 2.534 2.534 0 0 1 33.06 20.25 A 3.68 3.68 0 0 1 33.13 19.552 A 4.926 4.926 0 0 1 33.285 18.96 Q 33.51 18.27 33.72 17.55 Q 33.93 16.83 33.93 16.17 Q 33.93 15.39 33.6 15.09 A 1.145 1.145 0 0 0 32.864 14.792 A 1.482 1.482 0 0 0 32.79 14.79 A 2.559 2.559 0 0 0 31.779 15.008 Q 31.343 15.194 30.9 15.54 A 9.091 9.091 0 0 0 29.858 16.501 A 12.056 12.056 0 0 0 29.055 17.46 Q 28.17 18.63 27.39 19.86 A 155.732 155.732 0 0 0 26.698 20.96 Q 26.375 21.48 26.09 21.947 A 93.189 93.189 0 0 0 26.01 22.08 A 2.677 2.677 0 0 1 25.035 21.9 A 1.77 1.77 0 0 1 24.586 21.65 A 1.52 1.52 0 0 1 24.3 21.36 Q 24.3 21.232 24.53 20.644 A 20.854 20.854 0 0 1 24.615 20.43 Q 24.832 19.894 25.098 19.202 A 131.766 131.766 0 0 0 25.35 18.54 Q 25.77 17.43 26.085 16.23 A 10.688 10.688 0 0 0 26.3 15.226 Q 26.4 14.61 26.4 14.07 A 1.136 1.136 0 0 1 26.567 13.894 Q 26.732 13.751 26.985 13.62 Q 27.39 13.41 27.84 13.41 Q 28.606 13.41 28.72 13.996 A 1.171 1.171 0 0 1 28.74 14.22 A 2.71 2.71 0 0 1 28.726 14.478 Q 28.698 14.771 28.612 15.197 A 15.947 15.947 0 0 1 28.515 15.645 A 24.397 24.397 0 0 1 28.256 16.661 A 31.855 31.855 0 0 1 27.93 17.76 A 21.433 21.433 0 0 1 29.456 15.747 A 23.659 23.659 0 0 1 29.7 15.465 Q 30.69 14.34 31.785 13.605 Q 32.88 12.87 33.96 12.87 A 2.773 2.773 0 0 1 34.659 12.952 A 1.782 1.782 0 0 1 35.745 13.725 Q 36.3 14.58 36.3 15.6 A 5.034 5.034 0 0 1 36.183 16.704 A 4.317 4.317 0 0 1 36 17.31 A 36.278 36.278 0 0 1 35.464 18.629 A 33.066 33.066 0 0 1 35.385 18.81 A 3.742 3.742 0 0 0 35.107 19.755 A 3.324 3.324 0 0 0 35.07 20.25 A 2.222 2.222 0 0 0 35.086 20.527 Q 35.125 20.833 35.257 21.002 A 0.541 0.541 0 0 0 35.325 21.075 Q 35.58 21.3 35.91 21.3 A 1.814 1.814 0 0 0 36.682 21.119 Q 36.936 21.001 37.192 20.805 A 3.805 3.805 0 0 0 37.425 20.61 Q 38.166 19.942 38.851 18.907 A 12.488 12.488 0 0 0 38.895 18.84 Q 39.6 17.76 40.14 16.65 Z M 120.15 16.65 L 120.69 16.92 A 20.187 20.187 0 0 1 119.734 18.721 Q 118.909 20.093 117.99 21.03 Q 116.52 22.53 114.87 22.53 A 3.018 3.018 0 0 1 114.155 22.451 A 1.805 1.805 0 0 1 112.995 21.63 A 3.594 3.594 0 0 1 112.546 20.485 Q 112.44 19.988 112.44 19.41 A 9.475 9.475 0 0 1 112.516 18.254 Q 112.593 17.629 112.749 16.925 A 19.716 19.716 0 0 1 112.98 15.99 A 34.651 34.651 0 0 1 113.784 13.449 A 42.774 42.774 0 0 1 114.405 11.82 Q 115.29 9.63 116.34 7.545 A 50.917 50.917 0 0 1 117.526 5.323 A 40.406 40.406 0 0 1 118.455 3.765 A 32.205 32.205 0 0 1 119.197 2.634 Q 119.558 2.111 119.895 1.675 A 14.393 14.393 0 0 1 120.405 1.05 A 6.95 6.95 0 0 1 120.776 0.653 Q 121.367 0.07 121.774 0.033 A 0.602 0.602 0 0 1 121.83 0.03 A 0.594 0.594 0 0 1 122.278 0.231 A 1.017 1.017 0 0 1 122.415 0.42 A 3.217 3.217 0 0 1 122.638 0.898 A 4.268 4.268 0 0 1 122.775 1.335 A 4.531 4.531 0 0 1 122.876 1.841 A 3.42 3.42 0 0 1 122.91 2.31 A 4.346 4.346 0 0 1 122.866 2.895 Q 122.783 3.505 122.54 4.31 A 15.111 15.111 0 0 1 122.505 4.425 A 19.261 19.261 0 0 1 122.087 5.621 Q 121.856 6.225 121.565 6.878 A 32.496 32.496 0 0 1 121.365 7.32 A 30.01 30.01 0 0 1 120.111 9.73 A 34.453 34.453 0 0 1 119.625 10.545 Q 118.62 12.18 117.42 13.665 A 18.593 18.593 0 0 1 115.793 15.44 A 15.729 15.729 0 0 1 114.9 16.23 A 20.654 20.654 0 0 0 114.672 17.411 A 18.002 18.002 0 0 0 114.615 17.79 A 11.055 11.055 0 0 0 114.526 18.671 A 8.991 8.991 0 0 0 114.51 19.2 A 5.995 5.995 0 0 0 114.537 19.794 Q 114.597 20.388 114.785 20.758 A 1.454 1.454 0 0 0 114.855 20.88 Q 115.182 21.392 115.765 21.419 A 1.42 1.42 0 0 0 115.83 21.42 A 1.916 1.916 0 0 0 116.638 21.233 Q 116.913 21.106 117.189 20.894 A 3.981 3.981 0 0 0 117.405 20.715 Q 118.175 20.032 118.875 18.983 A 12.281 12.281 0 0 0 118.92 18.915 Q 119.64 17.82 120.15 16.65 Z M 131.16 16.74 L 131.58 17.07 Q 131.024 18.367 130.106 18.999 A 3.259 3.259 0 0 1 129.855 19.155 A 5.273 5.273 0 0 1 128.928 19.57 A 3.777 3.777 0 0 1 127.74 19.77 A 3.688 3.688 0 0 1 127.035 19.704 A 3.414 3.414 0 0 1 126.99 19.695 Q 126.63 19.62 126.3 19.5 A 11.31 11.31 0 0 1 124.254 21.518 A 10.53 10.53 0 0 1 124.02 21.69 A 5.622 5.622 0 0 1 123.086 22.237 Q 122.311 22.59 121.56 22.59 A 3.287 3.287 0 0 1 120.88 22.525 Q 120.092 22.358 119.715 21.765 A 3.35 3.35 0 0 1 119.223 20.367 A 4.283 4.283 0 0 1 119.19 19.83 A 6.383 6.383 0 0 1 119.332 18.516 A 7.723 7.723 0 0 1 119.49 17.895 Q 119.79 16.89 120.3 16.02 A 6.22 6.22 0 0 1 120.804 15.28 A 4.531 4.531 0 0 1 121.44 14.625 A 2.703 2.703 0 0 1 121.883 14.321 Q 122.291 14.1 122.7 14.1 A 1.594 1.594 0 0 1 122.967 14.123 A 1.88 1.88 0 0 1 123.075 14.145 A 1.292 1.292 0 0 1 123.285 14.212 A 1.057 1.057 0 0 1 123.42 14.28 A 3.386 3.386 0 0 0 123.225 14.517 Q 123.003 14.812 122.745 15.255 A 11.126 11.126 0 0 0 122.299 16.108 A 13.79 13.79 0 0 0 122.04 16.695 Q 121.71 17.49 121.5 18.285 A 7.695 7.695 0 0 0 121.373 18.844 Q 121.324 19.11 121.304 19.344 A 3.597 3.597 0 0 0 121.29 19.65 Q 121.29 20.428 121.553 20.832 A 1.074 1.074 0 0 0 121.575 20.865 A 0.941 0.941 0 0 0 121.904 21.162 Q 122.085 21.258 122.313 21.269 A 1.238 1.238 0 0 0 122.37 21.27 A 1.373 1.373 0 0 0 122.811 21.19 Q 123.259 21.038 123.81 20.595 A 10.999 10.999 0 0 0 124.797 19.693 A 13.867 13.867 0 0 0 125.46 18.96 Q 124.59 18.21 124.14 17.115 A 6.073 6.073 0 0 1 123.702 15.148 A 7.135 7.135 0 0 1 123.69 14.73 Q 123.69 13.86 124.02 13.02 Q 124.35 12.18 125.025 11.625 A 2.408 2.408 0 0 1 126.188 11.111 A 3.286 3.286 0 0 1 126.72 11.07 Q 127.98 11.07 128.43 11.745 A 2.61 2.61 0 0 1 128.811 12.685 A 3.648 3.648 0 0 1 128.88 13.41 A 5.639 5.639 0 0 1 128.755 14.56 Q 128.642 15.103 128.426 15.688 A 10.072 10.072 0 0 1 128.31 15.99 Q 127.74 17.4 126.87 18.69 A 2.302 2.302 0 0 0 127.867 18.929 A 2.677 2.677 0 0 0 127.92 18.93 Q 128.335 18.93 128.84 18.784 A 5.073 5.073 0 0 0 129 18.735 A 3.365 3.365 0 0 0 129.666 18.431 A 4.561 4.561 0 0 0 130.2 18.06 Q 130.8 17.58 131.16 16.74 Z M 61.98 16.68 L 62.43 17.01 A 11.513 11.513 0 0 1 60.89 19.539 A 10.508 10.508 0 0 1 60.36 20.145 A 10.248 10.248 0 0 1 58.631 21.624 A 8.86 8.86 0 0 1 57.615 22.215 A 7.02 7.02 0 0 1 55.599 22.871 A 6.347 6.347 0 0 1 54.6 22.95 A 5.405 5.405 0 0 1 53.501 22.845 Q 52.841 22.708 52.341 22.392 A 2.876 2.876 0 0 1 51.78 21.93 A 3.499 3.499 0 0 1 50.824 19.596 A 4.551 4.551 0 0 1 50.82 19.41 A 5.912 5.912 0 0 1 51.011 17.957 Q 51.179 17.293 51.495 16.59 A 11.806 11.806 0 0 1 53.286 13.78 A 13.123 13.123 0 0 1 53.295 13.77 A 10.348 10.348 0 0 1 54.996 12.166 A 9.16 9.16 0 0 1 55.785 11.64 A 6.144 6.144 0 0 1 57.056 11.06 A 4.742 4.742 0 0 1 58.5 10.83 Q 59.22 10.83 59.835 11.205 A 1.131 1.131 0 0 1 60.286 11.747 Q 60.45 12.132 60.45 12.72 Q 60.45 13.86 59.79 14.85 A 6.354 6.354 0 0 1 58.67 16.112 A 7.874 7.874 0 0 1 58.02 16.62 Q 56.91 17.4 55.605 17.895 Q 54.3 18.39 52.98 18.54 A 2.742 2.742 0 0 0 52.916 18.884 A 2.394 2.394 0 0 0 52.905 19.005 A 6.912 6.912 0 0 0 52.89 19.41 A 7.59 7.59 0 0 0 52.89 19.47 A 3.984 3.984 0 0 0 52.914 19.894 A 5.145 5.145 0 0 0 52.965 20.25 A 2.117 2.117 0 0 0 53.213 20.925 A 2.499 2.499 0 0 0 53.295 21.06 Q 53.55 21.45 54.015 21.69 A 1.938 1.938 0 0 0 54.458 21.85 Q 54.796 21.93 55.23 21.93 Q 56.52 21.93 57.78 21.21 A 9.51 9.51 0 0 0 59.568 19.877 A 11.31 11.31 0 0 0 60.135 19.305 Q 61.23 18.12 61.98 16.68 Z M 72.06 16.68 L 72.51 17.01 A 11.513 11.513 0 0 1 70.97 19.539 A 10.508 10.508 0 0 1 70.44 20.145 A 10.248 10.248 0 0 1 68.711 21.624 A 8.86 8.86 0 0 1 67.695 22.215 A 7.02 7.02 0 0 1 65.679 22.871 A 6.347 6.347 0 0 1 64.68 22.95 A 5.405 5.405 0 0 1 63.581 22.845 Q 62.921 22.708 62.421 22.392 A 2.876 2.876 0 0 1 61.86 21.93 A 3.499 3.499 0 0 1 60.904 19.596 A 4.551 4.551 0 0 1 60.9 19.41 A 5.912 5.912 0 0 1 61.091 17.957 Q 61.259 17.293 61.575 16.59 A 11.806 11.806 0 0 1 63.366 13.78 A 13.123 13.123 0 0 1 63.375 13.77 A 10.348 10.348 0 0 1 65.076 12.166 A 9.16 9.16 0 0 1 65.865 11.64 A 6.144 6.144 0 0 1 67.136 11.06 A 4.742 4.742 0 0 1 68.58 10.83 Q 69.3 10.83 69.915 11.205 A 1.131 1.131 0 0 1 70.366 11.747 Q 70.53 12.132 70.53 12.72 Q 70.53 13.86 69.87 14.85 A 6.354 6.354 0 0 1 68.75 16.112 A 7.874 7.874 0 0 1 68.1 16.62 Q 66.99 17.4 65.685 17.895 Q 64.38 18.39 63.06 18.54 A 2.742 2.742 0 0 0 62.996 18.884 A 2.394 2.394 0 0 0 62.985 19.005 A 6.912 6.912 0 0 0 62.97 19.41 A 7.59 7.59 0 0 0 62.97 19.47 A 3.984 3.984 0 0 0 62.994 19.894 A 5.145 5.145 0 0 0 63.045 20.25 A 2.117 2.117 0 0 0 63.293 20.925 A 2.499 2.499 0 0 0 63.375 21.06 Q 63.63 21.45 64.095 21.69 A 1.938 1.938 0 0 0 64.538 21.85 Q 64.876 21.93 65.31 21.93 Q 66.6 21.93 67.86 21.21 A 9.51 9.51 0 0 0 69.648 19.877 A 11.31 11.31 0 0 0 70.215 19.305 Q 71.31 18.12 72.06 16.68 Z M 79.77 12.21 L 79.77 11.88 A 5.257 5.257 0 0 1 79.798 11.321 Q 79.874 10.613 80.16 10.26 Q 80.42 9.94 80.708 9.833 A 0.835 0.835 0 0 1 81 9.78 A 0.861 0.861 0 0 1 81.152 9.793 Q 81.235 9.808 81.301 9.84 A 0.4 0.4 0 0 1 81.405 9.915 Q 81.54 10.05 81.57 10.23 A 0.975 0.975 0 0 1 81.561 10.354 Q 81.542 10.504 81.48 10.71 A 1.826 1.826 0 0 0 81.427 10.949 Q 81.39 11.183 81.39 11.49 A 5.36 5.36 0 0 0 81.49 12.49 Q 81.578 12.956 81.746 13.46 A 9.203 9.203 0 0 0 81.795 13.605 Q 82.2 14.76 82.605 16.035 Q 83.01 17.31 83.01 18.69 Q 83.01 19.05 82.965 19.41 Q 82.92 19.77 82.86 20.07 A 4.076 4.076 0 0 0 84.074 19.591 A 5.42 5.42 0 0 0 84.78 19.095 A 4.976 4.976 0 0 0 85.465 18.397 Q 85.771 18.022 86.067 17.544 A 11.95 11.95 0 0 0 86.55 16.68 L 86.85 16.98 A 6.647 6.647 0 0 1 86.245 18.283 A 4.914 4.914 0 0 1 85.155 19.545 Q 84.03 20.46 82.65 20.7 A 3.929 3.929 0 0 1 82.081 21.729 A 3.262 3.262 0 0 1 81.12 22.56 A 4.581 4.581 0 0 1 79.156 23.145 A 5.546 5.546 0 0 1 78.75 23.16 A 5.481 5.481 0 0 1 77.829 23.087 Q 77.321 23.001 76.911 22.81 A 2.792 2.792 0 0 1 76.455 22.545 A 3.553 3.553 0 0 1 75.58 21.659 A 3.273 3.273 0 0 1 75.24 21.015 A 5.038 5.038 0 0 1 74.883 19.344 A 4.797 4.797 0 0 1 74.88 19.17 A 5.453 5.453 0 0 1 74.901 18.673 Q 74.951 18.128 75.12 17.79 Q 75.321 17.387 75.597 17.164 A 1.297 1.297 0 0 1 75.705 17.085 A 4.077 4.077 0 0 1 76.043 16.886 A 3.014 3.014 0 0 1 76.365 16.74 A 2.135 2.135 0 0 0 76.546 16.662 Q 76.633 16.619 76.703 16.573 A 0.836 0.836 0 0 0 76.83 16.47 A 19.591 19.591 0 0 0 78.243 14.769 A 21.6 21.6 0 0 0 78.435 14.505 Q 79.2 13.44 79.77 12.21 Z M 99.9 10.44 Q 101.58 10.38 103.2 10.05 Q 104.82 9.72 106.155 9.045 A 6.453 6.453 0 0 0 107.555 8.101 A 5.571 5.571 0 0 0 108.3 7.29 A 3.968 3.968 0 0 0 109.014 5.64 A 5.506 5.506 0 0 0 109.11 4.59 A 4.828 4.828 0 0 0 109.029 3.678 Q 108.927 3.148 108.696 2.734 A 2.518 2.518 0 0 0 108.36 2.265 A 3.798 3.798 0 0 0 106.785 1.236 A 4.715 4.715 0 0 0 106.425 1.125 A 9.481 9.481 0 0 0 104.555 0.83 A 11.066 11.066 0 0 0 103.89 0.81 L 103.695 0.81 L 103.47 0.81 A 35.131 35.131 0 0 0 102.228 3.556 A 42.236 42.236 0 0 0 101.55 5.355 Q 100.68 7.83 99.9 10.44 Z M 115.26 14.94 A 23.68 23.68 0 0 0 116.641 13.334 A 27.82 27.82 0 0 0 117.255 12.525 Q 118.23 11.19 119.055 9.75 A 42.279 42.279 0 0 0 120.01 7.991 A 35.446 35.446 0 0 0 120.51 6.975 Q 121.017 5.901 121.339 5.001 A 14.581 14.581 0 0 0 121.485 4.575 A 10.939 10.939 0 0 0 121.652 4.013 Q 121.797 3.466 121.824 3.078 A 2.432 2.432 0 0 0 121.83 2.91 A 1.535 1.535 0 0 0 121.828 2.825 Q 121.821 2.703 121.793 2.653 A 0.107 0.107 0 0 0 121.785 2.64 A 0.323 0.323 0 0 0 121.73 2.582 A 0.274 0.274 0 0 0 121.68 2.55 A 0.278 0.278 0 0 0 121.55 2.59 Q 121.368 2.69 121.079 3.039 A 6.941 6.941 0 0 0 120.885 3.285 A 14.858 14.858 0 0 0 120.518 3.796 Q 120.091 4.414 119.565 5.28 Q 118.8 6.54 118.005 8.13 A 48.836 48.836 0 0 0 116.671 11.039 A 53.849 53.849 0 0 0 116.49 11.475 A 37.408 37.408 0 0 0 115.391 14.512 A 34.177 34.177 0 0 0 115.26 14.94 Z M 3.96 12.15 A 8.88 8.88 0 0 0 4.854 11.306 A 11.665 11.665 0 0 0 5.535 10.5 Q 6.3 9.51 6.975 8.415 A 24.071 24.071 0 0 0 7.895 6.789 A 21.181 21.181 0 0 0 8.16 6.255 A 22.778 22.778 0 0 0 8.566 5.36 Q 8.801 4.809 8.97 4.32 A 11.659 11.659 0 0 0 9.103 3.911 Q 9.278 3.338 9.3 3 Q 9.3 2.88 9.27 2.835 Q 9.243 2.794 9.215 2.765 A 0.35 0.35 0 0 0 9.21 2.76 A 0.325 0.325 0 0 0 9.085 2.812 Q 8.834 2.968 8.344 3.587 A 12.986 12.986 0 0 0 8.31 3.63 A 14.236 14.236 0 0 0 7.8 4.326 Q 7.574 4.651 7.335 5.028 A 30.859 30.859 0 0 0 6.84 5.835 Q 6.03 7.2 5.25 8.85 A 25.052 25.052 0 0 0 3.992 12.047 A 23.187 23.187 0 0 0 3.96 12.15 Z M 53.19 17.79 Q 54 17.58 54.99 17.07 Q 55.98 16.56 56.91 15.855 A 7.494 7.494 0 0 0 57.966 14.89 A 6.378 6.378 0 0 0 58.44 14.295 A 3.426 3.426 0 0 0 58.885 13.435 A 2.843 2.843 0 0 0 59.04 12.51 A 1.439 1.439 0 0 0 59.031 12.341 Q 59.01 12.163 58.94 12.058 A 0.376 0.376 0 0 0 58.92 12.03 A 0.322 0.322 0 0 0 58.8 11.94 Q 58.691 11.891 58.518 11.882 A 1.541 1.541 0 0 0 58.44 11.88 A 2.117 2.117 0 0 0 57.77 11.995 Q 57.377 12.126 56.955 12.405 Q 56.16 12.93 55.425 13.8 Q 54.69 14.67 54.09 15.705 A 9.559 9.559 0 0 0 53.382 17.201 A 8.388 8.388 0 0 0 53.19 17.79 Z M 63.27 17.79 Q 64.08 17.58 65.07 17.07 Q 66.06 16.56 66.99 15.855 A 7.494 7.494 0 0 0 68.046 14.89 A 6.378 6.378 0 0 0 68.52 14.295 A 3.426 3.426 0 0 0 68.965 13.435 A 2.843 2.843 0 0 0 69.12 12.51 A 1.439 1.439 0 0 0 69.111 12.341 Q 69.09 12.163 69.02 12.058 A 0.376 0.376 0 0 0 69 12.03 A 0.322 0.322 0 0 0 68.88 11.94 Q 68.771 11.891 68.598 11.882 A 1.541 1.541 0 0 0 68.52 11.88 A 2.117 2.117 0 0 0 67.85 11.995 Q 67.457 12.126 67.035 12.405 Q 66.24 12.93 65.505 13.8 Q 64.77 14.67 64.17 15.705 A 9.559 9.559 0 0 0 63.462 17.201 A 8.388 8.388 0 0 0 63.27 17.79 Z M 80.79 20.04 A 4.448 4.448 0 0 0 80.853 19.685 A 5.444 5.444 0 0 0 80.88 19.455 A 6.636 6.636 0 0 0 80.906 19.044 A 8.049 8.049 0 0 0 80.91 18.78 Q 80.91 17.4 80.565 16.02 Q 80.22 14.64 79.95 13.38 Q 79.32 14.43 78.57 15.48 Q 77.927 16.38 77.328 17.016 A 9.577 9.577 0 0 1 77.13 17.22 A 5.395 5.395 0 0 0 77.812 18.204 A 7.238 7.238 0 0 0 78.54 18.93 A 4.937 4.937 0 0 0 80.348 19.922 A 5.978 5.978 0 0 0 80.79 20.04 Z M 40.62 29.01 Q 41.1 29.01 42.15 27.825 A 7.287 7.287 0 0 0 42.784 26.98 Q 43.377 26.072 44.007 24.684 A 31.802 31.802 0 0 0 44.37 23.85 A 34.476 34.476 0 0 0 42.227 25.075 A 31.265 31.265 0 0 0 42.195 25.095 A 8.327 8.327 0 0 0 41.32 25.717 Q 40.867 26.089 40.53 26.49 A 2.756 2.756 0 0 0 40.062 27.265 A 2.397 2.397 0 0 0 39.9 28.14 Q 39.9 28.394 40.046 28.675 A 1.754 1.754 0 0 0 40.065 28.71 A 0.548 0.548 0 0 0 40.46 28.996 A 0.845 0.845 0 0 0 40.62 29.01 Z M 126.09 18.12 Q 126.81 17.01 127.32 15.81 A 6.851 6.851 0 0 0 127.686 14.711 A 5.118 5.118 0 0 0 127.83 13.53 A 4.343 4.343 0 0 0 127.812 13.114 Q 127.763 12.616 127.59 12.345 A 0.886 0.886 0 0 0 127.394 12.124 Q 127.201 11.971 126.934 11.97 A 0.957 0.957 0 0 0 126.93 11.97 Q 126.423 11.97 125.869 12.646 A 4.384 4.384 0 0 0 125.73 12.825 A 3.157 3.157 0 0 0 125.183 14.09 A 4.437 4.437 0 0 0 125.1 14.97 A 5.488 5.488 0 0 0 125.181 15.885 A 7.239 7.239 0 0 0 125.355 16.65 A 4.794 4.794 0 0 0 125.62 17.371 Q 125.8 17.758 126.04 18.059 A 2.922 2.922 0 0 0 126.09 18.12 Z M 131.7 28.92 A 0.853 0.853 0 0 0 132.044 28.836 Q 132.496 28.634 133.136 27.947 A 9.884 9.884 0 0 0 133.275 27.795 A 6.84 6.84 0 0 0 133.853 27.035 Q 134.609 25.902 135.45 23.94 A 24.162 24.162 0 0 0 133.788 24.829 A 21.028 21.028 0 0 0 133.275 25.14 A 9.6 9.6 0 0 0 132.467 25.703 Q 131.994 26.072 131.64 26.46 A 2.618 2.618 0 0 0 131.232 27.04 A 2.01 2.01 0 0 0 131.01 27.96 A 1.68 1.68 0 0 0 131.031 28.234 Q 131.055 28.38 131.107 28.498 A 0.813 0.813 0 0 0 131.205 28.665 A 0.693 0.693 0 0 0 131.373 28.825 A 0.581 0.581 0 0 0 131.7 28.92 Z M 79.54 21.848 A 3.871 3.871 0 0 0 79.74 21.765 Q 80.193 21.562 80.476 20.97 A 3.152 3.152 0 0 0 80.61 20.64 Q 79.38 20.4 78.39 19.665 Q 77.4 18.93 76.92 18.21 A 0.535 0.535 0 0 0 76.433 18.533 Q 76.324 18.758 76.32 19.139 A 2.815 2.815 0 0 0 76.32 19.17 Q 76.32 20.22 76.95 21.12 A 1.998 1.998 0 0 0 78.393 22 A 2.626 2.626 0 0 0 78.72 22.02 Q 79.09 22.02 79.54 21.848 Z M 7.38 19.41 Q 7.71 18.75 7.875 18.03 A 6.686 6.686 0 0 0 8.04 16.554 A 7.34 7.34 0 0 0 8.04 16.53 Q 8.04 15.508 7.77 14.94 A 1.765 1.765 0 0 0 7.755 14.91 A 1.795 1.795 0 0 0 7.616 14.674 Q 7.408 14.382 7.153 14.345 A 0.518 0.518 0 0 0 7.08 14.34 A 0.631 0.631 0 0 0 6.694 14.477 Q 6.5 14.623 6.33 14.925 A 2.415 2.415 0 0 0 6.083 15.581 Q 6.015 15.877 6.003 16.219 A 4.381 4.381 0 0 0 6 16.38 Q 6 17.107 6.296 17.962 A 6.935 6.935 0 0 0 6.315 18.015 Q 6.63 18.9 7.38 19.41 Z M 76.17 4.35 Q 75.84 4.17 75.705 3.855 Q 75.57 3.54 75.57 3.18 A 3.41 3.41 0 0 1 75.645 2.486 Q 75.712 2.162 75.84 1.815 A 5.134 5.134 0 0 1 76.202 1.03 A 4.197 4.197 0 0 1 76.53 0.54 A 2.075 2.075 0 0 1 76.755 0.291 Q 76.888 0.168 77.023 0.097 A 0.803 0.803 0 0 1 77.4 0 A 0.755 0.755 0 0 1 77.899 0.189 A 1.048 1.048 0 0 1 77.985 0.27 A 0.924 0.924 0 0 1 78.24 0.924 A 1.186 1.186 0 0 1 78.24 0.93 Q 77.46 1.74 76.965 2.655 Q 76.47 3.57 76.17 4.35 Z" vector-effect="non-scaling-stroke"/></g></svg>